<?xml version="1.0" standalone="no"?><!DOCTYPE svg PUBLIC "-//W3C//DTD SVG 1.1//EN" "http://www.w3.org/Graphics/SVG/1.1/DTD/svg11.dtd"><svg t="1745460662812" class="icon" viewBox="0 0 1024 1024" version="1.1" xmlns="http://www.w3.org/2000/svg" p-id="32563" xmlns:xlink="http://www.w3.org/1999/xlink" width="48" height="48"><path d="M376.064 490.706824a64 64 0 1 0 128 0 64 64 0 0 0-128 0zM640 490.706824a64 64 0 1 0 128 0 64 64 0 0 0-128 0z" fill="#000000" p-id="32564"></path><path d="M854.693647 178.898824c-89.389176-89.705412-214.091294-139.595294-341.684706-136.192-129.008941-3.508706-254.313412 46.486588-343.808 136.192-84.705882 85.007059-129.701647 196.096-126.494117 311.808 0 79.691294 20.299294 156.190118 58.292705 222.599529l-28.912941 87.100235a92.988235 92.988235 0 0 0 18.31153 91.196236 92.973176 92.973176 0 0 0 87.792941 30.689882l132.21647-24.395294c62.298353 26.910118 129.987765 40.704 200.493177 40.704 3.900235 0.105412 7.695059 0.105412 11.595294 0.105412 124.897882 0 245.398588-49.302588 332.197647-136.402824 84.510118-84.811294 129.400471-195.403294 126.599529-311.808 2.906353-116.193882-41.999059-226.891294-126.599529-311.597176z m-60.385882 563.305411c-73.005176 73.185882-175.902118 113.995294-282.307765 111.194353-62.599529-0.105412-121.494588-12.498824-175.104-36.894117-0.301176-0.210824-0.692706-0.210824-1.099294-0.406589a41.938824 41.938824 0 0 0-27.798588-4.502588l-145.302589 26.804706a8.297412 8.297412 0 0 1-7.996235-2.800941 7.890824 7.890824 0 0 1-1.596235-8.297412l34.484706-104.101647a42.164706 42.164706 0 0 0-0.783059-28.506353 44.092235 44.092235 0 0 0-4.909177-11.700706c-35.297882-56.199529-53.895529-122.699294-54.000941-193.505882-2.499765-93.184 33.611294-182.091294 101.707294-250.383059 73.095529-73.200941 175.405176-113.091765 283.407059-111.104 106.194824-2.002824 208.188235 37.993412 281.298824 111.104 68.096 68.291765 104.192 157.199059 101.692235 250.398118v2.304c2.499765 93.199059-33.596235 182.091294-101.707294 250.398117z" fill="#000000" p-id="32565"></path></svg>