<?xml version="1.0" standalone="no"?><!DOCTYPE svg PUBLIC "-//W3C//DTD SVG 1.1//EN" "http://www.w3.org/Graphics/SVG/1.1/DTD/svg11.dtd"><svg t="1745075094433" class="icon" viewBox="0 0 1024 1024" version="1.1" xmlns="http://www.w3.org/2000/svg" p-id="6449" xmlns:xlink="http://www.w3.org/1999/xlink" width="48" height="48"><path d="M434.816 242.112a64 64 0 0 1 45.184 61.184v417.408a64 64 0 0 1-45.184 61.184l-288 88.64A64 64 0 0 1 64 809.344V214.656a64 64 0 0 1 82.816-61.184l288 88.64zM128 214.656v594.688l288-88.64V303.36L128 214.656zM544 303.296a64 64 0 0 1 45.184-61.184l288-88.64A64 64 0 0 1 960 214.656v594.688a64 64 0 0 1-82.816 61.184l-288-88.64a64 64 0 0 1-45.184-61.184V303.36z m64 0v417.408l288 88.64V214.656L608 303.296z" p-id="6450" fill="#ffffff"></path></svg>