<?xml version="1.0" standalone="no"?><!DOCTYPE svg PUBLIC "-//W3C//DTD SVG 1.1//EN" "http://www.w3.org/Graphics/SVG/1.1/DTD/svg11.dtd"><svg t="1767251028686" class="icon" viewBox="0 0 1024 1024" version="1.1" xmlns="http://www.w3.org/2000/svg" p-id="27472" xmlns:xlink="http://www.w3.org/1999/xlink" width="32" height="32"><path d="M133.12 145.75104c0-55.80288 45.2352-101.03808 101.03296-101.03808h404.14208v151.552c0 55.80288 45.2352 101.03808 101.03296 101.03808H890.88v580.94592c0 55.80288-45.2352 101.03808-101.03296 101.03808H234.15296c-55.79776 0-101.03296-45.2352-101.03296-101.03808V145.75104z" fill="#2D2D30" p-id="27473"></path><path d="M307.2 604.16V419.84h53.89312l53.89824 65.05472L468.88448 419.84h53.89312v184.32H468.88448V495.73376L414.99136 560.7936 361.09312 495.73376V604.16H307.2zM641.34656 604.16l-75.45344-86.73792h43.11552V419.84h53.89824v97.58208H716.8L641.34656 604.16z" fill="#FFFFFF" p-id="27474"></path><path d="M638.29504 44.71296l132.608 132.608L890.88 297.30304h-151.552c-55.80288 0-101.03296-45.2352-101.03296-101.03808v-151.552z" fill="#848484" p-id="27475"></path></svg>