<svg xmlns="http://www.w3.org/2000/svg" viewBox="0 0 800 200">
  <defs>
    <linearGradient id="bgGradient" x1="0%" y1="0%" x2="100%" y2="100%">
      <stop offset="0%" style="stop-color:#c8e6c9;stop-opacity:1" />
      <stop offset="50%" style="stop-color:#e8f5e9;stop-opacity:1" />
      <stop offset="100%" style="stop-color:#ffffff;stop-opacity:1" />
    </linearGradient>
    
    <filter id="glass" x="-10%" y="-10%" width="120%" height="120%">
      <feGaussianBlur in="SourceGraphic" stdDeviation="0.5"/>
    </filter>
    
    <linearGradient id="glassGradient" x1="0%" y1="0%" x2="0%" y2="100%">
      <stop offset="0%" style="stop-color:#ffffff;stop-opacity:0.7" />
      <stop offset="100%" style="stop-color:#ffffff;stop-opacity:0.3" />
    </linearGradient>
  </defs>
  
  <rect width="800" height="200" fill="url(#bgGradient)"/>
  
  <g transform="translate(400, 100)">
    <svg x="-130" y="-30" viewBox="0 0 1024 1024" width="60" height="60">
      <path d="M434.816 242.112a64 64 0 0 1 45.184 61.184v417.408a64 64 0 0 1-45.184 61.184l-288 88.64A64 64 0 0 1 64 809.344V214.656a64 64 0 0 1 82.816-61.184l288 88.64zM128 214.656v594.688l288-88.64V303.36L128 214.656zM544 303.296a64 64 0 0 1 45.184-61.184l288-88.64A64 64 0 0 1 960 214.656v594.688a64 64 0 0 1-82.816 61.184l-288-88.64a64 64 0 0 1-45.184-61.184V303.36z m64 0v417.408l288 88.64V214.656L608 303.296z" fill="#1a1a1a"/>
    </svg>
    
    <text x="-50" y="10" text-anchor="start" font-family="'SF Pro Display', -apple-system, BlinkMacSystemFont, 'Segoe UI', Roboto, 'Helvetica Neue', Arial, sans-serif" font-size="40" font-weight="600" fill="#1a1a1a">
      Mirror Chat
    </text>
  </g>
</svg>
